<svg width="150" height="42" viewBox="0 0 150 42" fill="none" xmlns="http://www.w3.org/2000/svg">
<path d="M17.76 23.42H12.42C12.1933 23.9667 12 24.4533 11.84 24.88C11.68 25.2933 11.5467 25.6533 11.44 25.96C11.3467 26.2667 11.28 26.5267 11.24 26.74C11.2 26.9533 11.18 27.1267 11.18 27.26C11.18 27.6333 11.3 27.8933 11.54 28.04C11.78 28.1733 12.18 28.24 12.74 28.24V29H7.88V28.24C8.18667 28.2 8.44667 28.1467 8.66 28.08C8.88667 28.0133 9.08 27.92 9.24 27.8C9.41333 27.68 9.56 27.5267 9.68 27.34C9.81333 27.14 9.94 26.9 10.06 26.62L15.26 13.6H16.12L20.66 24.88C20.9667 25.6267 21.2333 26.2267 21.46 26.68C21.6867 27.12 21.9067 27.4533 22.12 27.68C22.3333 27.9067 22.56 28.0533 22.8 28.12C23.0533 28.1867 23.3533 28.22 23.7 28.22V29H17.18V28.22C17.8867 28.22 18.3733 28.1533 18.64 28.02C18.9067 27.8867 19.04 27.6667 19.04 27.36C19.04 27.2267 19.0333 27.1067 19.02 27C19.0067 26.88 18.98 26.7533 18.94 26.62C18.9133 26.4867 18.8667 26.34 18.8 26.18C18.7467 26.0067 18.6733 25.8067 18.58 25.58L17.76 23.42ZM12.82 22.42H17.38L15.16 16.52L12.82 22.42ZM33.2567 27.34C32.7767 27.9267 32.1567 28.3867 31.3967 28.72C30.6367 29.04 29.8167 29.2 28.9367 29.2C28.2301 29.2 27.5767 29.0733 26.9767 28.82C26.3901 28.5533 25.8834 28.1867 25.4567 27.72C25.0301 27.24 24.6967 26.6667 24.4567 26C24.2301 25.3333 24.1167 24.5933 24.1167 23.78C24.1167 22.9267 24.2501 22.16 24.5167 21.48C24.7834 20.7867 25.1567 20.2 25.6367 19.72C26.1301 19.2267 26.7167 18.8533 27.3967 18.6C28.0901 18.3333 28.8501 18.2 29.6767 18.2C30.1967 18.2 30.6701 18.2467 31.0967 18.34C31.5234 18.42 31.8901 18.54 32.1967 18.7C32.5167 18.8467 32.7634 19.0333 32.9367 19.26C33.1101 19.4733 33.1967 19.7067 33.1967 19.96C33.1967 20.2267 33.1101 20.4333 32.9367 20.58C32.7634 20.7267 32.5234 20.8 32.2167 20.8C31.9767 20.8 31.7767 20.7533 31.6167 20.66C31.4567 20.5533 31.2501 20.3267 30.9967 19.98C30.7301 19.6733 30.4701 19.46 30.2167 19.34C29.9767 19.2067 29.6634 19.14 29.2767 19.14C28.3301 19.14 27.6101 19.5067 27.1167 20.24C26.6367 20.9733 26.3967 22.0533 26.3967 23.48C26.3967 25.0133 26.6634 26.18 27.1967 26.98C27.7434 27.7667 28.5367 28.16 29.5767 28.16C30.1367 28.16 30.6634 28.0533 31.1567 27.84C31.6501 27.6133 32.1501 27.2533 32.6567 26.76L33.2567 27.34ZM38.2794 25.8C38.2794 26.36 38.2927 26.8 38.3194 27.12C38.346 27.44 38.4127 27.6867 38.5194 27.86C38.6394 28.02 38.806 28.1267 39.0194 28.18C39.2327 28.2333 39.5327 28.2733 39.9194 28.3V29H34.5994V28.3C34.986 28.2733 35.2927 28.2333 35.5194 28.18C35.746 28.1267 35.9194 28.02 36.0394 27.86C36.1594 27.7 36.2327 27.4733 36.2594 27.18C36.2994 26.8733 36.3194 26.4667 36.3194 25.96V23.4C36.3194 22.64 36.306 22.0067 36.2794 21.5C36.266 20.9933 36.2327 20.6467 36.1794 20.46C36.1394 20.2867 36.0927 20.1533 36.0394 20.06C35.986 19.9533 35.8994 19.8733 35.7794 19.82C35.6594 19.7533 35.4994 19.7133 35.2994 19.7C35.1127 19.6733 34.866 19.66 34.5594 19.66V18.96L37.8194 18.2L38.0794 20.2H38.1794C38.7794 19.52 39.406 19.02 40.0594 18.7C40.726 18.3667 41.4594 18.2 42.2594 18.2C43.0994 18.2 43.806 18.3733 44.3794 18.72C44.9527 19.0533 45.3527 19.54 45.5794 20.18H45.6594C46.1527 19.5533 46.7527 19.0667 47.4594 18.72C48.166 18.3733 48.9194 18.2 49.7194 18.2C50.346 18.2 50.9127 18.3067 51.4194 18.52C51.9394 18.72 52.3327 19 52.5994 19.36C52.8394 19.6667 53.006 20.0733 53.0994 20.58C53.206 21.0733 53.2594 21.7533 53.2594 22.62V25.8C53.2594 26.3467 53.2727 26.78 53.2994 27.1C53.3394 27.42 53.4127 27.6667 53.5194 27.84C53.626 28.0133 53.786 28.1267 53.9994 28.18C54.226 28.2333 54.5327 28.2733 54.9194 28.3V29H49.5994V28.3C49.9727 28.2867 50.2727 28.2533 50.4994 28.2C50.726 28.1333 50.8994 28.02 51.0194 27.86C51.1394 27.6867 51.2127 27.4533 51.2394 27.16C51.2794 26.8667 51.2994 26.4667 51.2994 25.96V23.44C51.2994 22.68 51.2594 22.04 51.1794 21.52C51.0994 20.9867 50.966 20.56 50.7794 20.24C50.5927 19.9067 50.346 19.6667 50.0394 19.52C49.746 19.3733 49.386 19.3 48.9594 19.3C48.3727 19.3 47.8194 19.4667 47.2994 19.8C46.7927 20.12 46.3927 20.5533 46.0994 21.1C46.0327 21.2333 45.9727 21.3667 45.9194 21.5C45.8794 21.62 45.846 21.76 45.8194 21.92C45.7927 22.0667 45.7727 22.2467 45.7594 22.46C45.7594 22.6733 45.7594 22.94 45.7594 23.26V25.8C45.7594 26.3467 45.7727 26.78 45.7994 27.1C45.826 27.42 45.8927 27.6667 45.9994 27.84C46.1194 28.0133 46.2927 28.1267 46.5194 28.18C46.746 28.2333 47.0527 28.2733 47.4394 28.3V29H42.1194V28.3C42.4927 28.2733 42.7927 28.2333 43.0194 28.18C43.246 28.1267 43.4127 28.02 43.5194 27.86C43.6394 27.7 43.7127 27.4733 43.7394 27.18C43.7794 26.8733 43.7994 26.4667 43.7994 25.96V23.44C43.7994 22.6667 43.7594 22.02 43.6794 21.5C43.5994 20.9667 43.466 20.54 43.2794 20.22C43.106 19.8867 42.8727 19.6533 42.5794 19.52C42.286 19.3733 41.926 19.3 41.4994 19.3C40.8994 19.3 40.3327 19.4667 39.7994 19.8C39.2794 20.12 38.886 20.5533 38.6194 21.1C38.5527 21.2333 38.4927 21.3667 38.4394 21.5C38.3994 21.62 38.366 21.76 38.3394 21.92C38.3127 22.0667 38.2927 22.2467 38.2794 22.46C38.2794 22.6733 38.2794 22.94 38.2794 23.26V25.8ZM65.7642 27.14C64.6309 28.5133 63.2242 29.2 61.5442 29.2C60.7576 29.2 60.0442 29.0733 59.4042 28.82C58.7642 28.5533 58.2109 28.1867 57.7442 27.72C57.2909 27.24 56.9376 26.6733 56.6842 26.02C56.4309 25.3533 56.3042 24.62 56.3042 23.82C56.3042 23.0067 56.4376 22.2533 56.7042 21.56C56.9709 20.8667 57.3442 20.2733 57.8242 19.78C58.3176 19.2867 58.8976 18.9 59.5642 18.62C60.2442 18.34 60.9842 18.2 61.7842 18.2C63.0776 18.2 64.0776 18.5533 64.7842 19.26C65.4909 19.9533 65.8442 20.9533 65.8442 22.26C65.8442 22.4467 65.8042 22.56 65.7242 22.6C65.6576 22.64 65.4909 22.66 65.2242 22.66H58.6442C58.6176 22.7667 58.5976 22.9 58.5842 23.06C58.5709 23.2067 58.5642 23.3733 58.5642 23.56C58.5642 24.2533 58.6442 24.8867 58.8042 25.46C58.9776 26.02 59.2176 26.5 59.5242 26.9C59.8442 27.3 60.2176 27.6133 60.6442 27.84C61.0842 28.0533 61.5709 28.16 62.1042 28.16C62.6642 28.16 63.1842 28.04 63.6642 27.8C64.1442 27.5467 64.6376 27.14 65.1442 26.58L65.7642 27.14ZM62.4642 21.74C62.7309 21.74 62.9442 21.7333 63.1042 21.72C63.2642 21.7067 63.3842 21.68 63.4642 21.64C63.5442 21.6 63.5976 21.5467 63.6242 21.48C63.6509 21.4 63.6642 21.3 63.6642 21.18C63.6642 20.5667 63.4642 20.08 63.0642 19.72C62.6776 19.3467 62.1442 19.16 61.4642 19.16C60.0242 19.16 59.1309 20.02 58.7842 21.74H62.4642ZM77.7313 25.82C77.7313 26.3267 77.7579 26.74 77.8112 27.06C77.8779 27.3667 78.0113 27.6067 78.2113 27.78C78.4113 27.94 78.6913 28.0533 79.0513 28.12C79.4246 28.1867 79.9113 28.2267 80.5113 28.24V29H73.4313V28.24C73.8979 28.2267 74.2713 28.1867 74.5513 28.12C74.8446 28.0533 75.0713 27.94 75.2313 27.78C75.3913 27.62 75.4979 27.3933 75.5513 27.1C75.6046 26.8067 75.6313 26.4267 75.6313 25.96V16.64C75.6313 16.1733 75.6046 15.8 75.5513 15.52C75.5113 15.2267 75.4179 15 75.2713 14.84C75.1379 14.6667 74.9379 14.5533 74.6713 14.5C74.4046 14.4333 74.0579 14.3867 73.6313 14.36V13.6H85.1913L85.4113 17.42H84.7113C84.6313 16.8467 84.5046 16.38 84.3313 16.02C84.1579 15.6467 83.9113 15.3533 83.5913 15.14C83.2846 14.9267 82.8913 14.78 82.4113 14.7C81.9313 14.6067 81.3313 14.56 80.6113 14.56H78.0713C77.8446 14.56 77.7313 14.6733 77.7313 14.9V20.94C78.3713 20.94 78.9179 20.9067 79.3713 20.84C79.8379 20.76 80.2179 20.6267 80.5113 20.44C80.8179 20.2533 81.0513 20 81.2113 19.68C81.3713 19.36 81.4713 18.9467 81.5113 18.44H82.2113V24.3H81.5113C81.4446 23.7933 81.3379 23.3733 81.1913 23.04C81.0446 22.7067 80.8246 22.4467 80.5313 22.26C80.2513 22.0733 79.8846 21.94 79.4313 21.86C78.9779 21.78 78.4113 21.74 77.7313 21.74V25.82ZM90.4897 25.82C90.4897 26.34 90.5097 26.76 90.5497 27.08C90.603 27.3867 90.6964 27.6333 90.8297 27.82C90.963 27.9933 91.1497 28.1133 91.3897 28.18C91.6297 28.2467 91.9497 28.2867 92.3497 28.3V29H86.6097V28.3C87.0097 28.2867 87.3364 28.2467 87.5897 28.18C87.843 28.1 88.0364 27.98 88.1697 27.82C88.3164 27.6467 88.4097 27.4133 88.4497 27.12C88.503 26.8133 88.5297 26.4267 88.5297 25.96V23.4C88.5297 22.6267 88.5164 21.9933 88.4897 21.5C88.4764 20.9933 88.443 20.6467 88.3897 20.46C88.323 20.1533 88.1697 19.9467 87.9297 19.84C87.6897 19.72 87.2364 19.66 86.5697 19.66V18.96L90.4897 18.2V25.82ZM88.1897 14.14C88.1897 13.7933 88.3097 13.5 88.5497 13.26C88.7897 13.02 89.083 12.9 89.4297 12.9C89.7764 12.9 90.0697 13.02 90.3097 13.26C90.5497 13.5 90.6697 13.7933 90.6697 14.14C90.6697 14.4867 90.5497 14.78 90.3097 15.02C90.0697 15.26 89.7764 15.38 89.4297 15.38C89.083 15.38 88.7897 15.26 88.5497 15.02C88.3097 14.78 88.1897 14.4867 88.1897 14.14ZM96.9261 25.88C96.9261 26.3867 96.9461 26.7933 96.9861 27.1C97.0261 27.4067 97.1061 27.6467 97.2261 27.82C97.3594 27.9933 97.5394 28.1133 97.7661 28.18C98.0061 28.2467 98.3194 28.2867 98.7061 28.3V29H93.1861V28.3C93.5861 28.2867 93.9061 28.2467 94.1461 28.18C94.3861 28.1 94.5728 27.98 94.7061 27.82C94.8528 27.66 94.9461 27.44 94.9861 27.16C95.0394 26.8667 95.0661 26.4867 95.0661 26.02V17.4C95.0661 16.68 95.0528 16.08 95.0261 15.6C95.0128 15.1067 94.9861 14.7733 94.9461 14.6C94.8794 14.2933 94.7194 14.0867 94.4661 13.98C94.2261 13.8733 93.7861 13.82 93.1461 13.82V13.14L96.9261 12.4V25.88ZM103.67 25.8C103.67 26.36 103.683 26.8 103.71 27.12C103.737 27.44 103.803 27.6867 103.91 27.86C104.03 28.02 104.197 28.1267 104.41 28.18C104.623 28.2333 104.923 28.2733 105.31 28.3V29H99.99V28.3C100.377 28.2733 100.683 28.2333 100.91 28.18C101.137 28.1267 101.31 28.02 101.43 27.86C101.55 27.7 101.623 27.4733 101.65 27.18C101.69 26.8733 101.71 26.4667 101.71 25.96V23.4C101.71 22.64 101.697 22.0067 101.67 21.5C101.657 20.9933 101.623 20.6467 101.57 20.46C101.53 20.2867 101.483 20.1533 101.43 20.06C101.377 19.9533 101.29 19.8733 101.17 19.82C101.05 19.7533 100.89 19.7133 100.69 19.7C100.503 19.6733 100.257 19.66 99.95 19.66V18.96L103.21 18.2L103.47 20.2H103.57C104.17 19.52 104.797 19.02 105.45 18.7C106.117 18.3667 106.85 18.2 107.65 18.2C108.49 18.2 109.197 18.3733 109.77 18.72C110.343 19.0533 110.743 19.54 110.97 20.18H111.05C111.543 19.5533 112.143 19.0667 112.85 18.72C113.557 18.3733 114.31 18.2 115.11 18.2C115.737 18.2 116.303 18.3067 116.81 18.52C117.33 18.72 117.723 19 117.99 19.36C118.23 19.6667 118.397 20.0733 118.49 20.58C118.597 21.0733 118.65 21.7533 118.65 22.62V25.8C118.65 26.3467 118.663 26.78 118.69 27.1C118.73 27.42 118.803 27.6667 118.91 27.84C119.017 28.0133 119.177 28.1267 119.39 28.18C119.617 28.2333 119.923 28.2733 120.31 28.3V29H114.99V28.3C115.363 28.2867 115.663 28.2533 115.89 28.2C116.117 28.1333 116.29 28.02 116.41 27.86C116.53 27.6867 116.603 27.4533 116.63 27.16C116.67 26.8667 116.69 26.4667 116.69 25.96V23.44C116.69 22.68 116.65 22.04 116.57 21.52C116.49 20.9867 116.357 20.56 116.17 20.24C115.983 19.9067 115.737 19.6667 115.43 19.52C115.137 19.3733 114.777 19.3 114.35 19.3C113.763 19.3 113.21 19.4667 112.69 19.8C112.183 20.12 111.783 20.5533 111.49 21.1C111.423 21.2333 111.363 21.3667 111.31 21.5C111.27 21.62 111.237 21.76 111.21 21.92C111.183 22.0667 111.163 22.2467 111.15 22.46C111.15 22.6733 111.15 22.94 111.15 23.26V25.8C111.15 26.3467 111.163 26.78 111.19 27.1C111.217 27.42 111.283 27.6667 111.39 27.84C111.51 28.0133 111.683 28.1267 111.91 28.18C112.137 28.2333 112.443 28.2733 112.83 28.3V29H107.51V28.3C107.883 28.2733 108.183 28.2333 108.41 28.18C108.637 28.1267 108.803 28.02 108.91 27.86C109.03 27.7 109.103 27.4733 109.13 27.18C109.17 26.8733 109.19 26.4667 109.19 25.96V23.44C109.19 22.6667 109.15 22.02 109.07 21.5C108.99 20.9667 108.857 20.54 108.67 20.22C108.497 19.8867 108.263 19.6533 107.97 19.52C107.677 19.3733 107.317 19.3 106.89 19.3C106.29 19.3 105.723 19.4667 105.19 19.8C104.67 20.12 104.277 20.5533 104.01 21.1C103.943 21.2333 103.883 21.3667 103.83 21.5C103.79 21.62 103.757 21.76 103.73 21.92C103.703 22.0667 103.683 22.2467 103.67 22.46C103.67 22.6733 103.67 22.94 103.67 23.26V25.8ZM131.155 27.14C130.022 28.5133 128.615 29.2 126.935 29.2C126.148 29.2 125.435 29.0733 124.795 28.82C124.155 28.5533 123.602 28.1867 123.135 27.72C122.682 27.24 122.328 26.6733 122.075 26.02C121.822 25.3533 121.695 24.62 121.695 23.82C121.695 23.0067 121.828 22.2533 122.095 21.56C122.362 20.8667 122.735 20.2733 123.215 19.78C123.708 19.2867 124.288 18.9 124.955 18.62C125.635 18.34 126.375 18.2 127.175 18.2C128.468 18.2 129.468 18.5533 130.175 19.26C130.882 19.9533 131.235 20.9533 131.235 22.26C131.235 22.4467 131.195 22.56 131.115 22.6C131.048 22.64 130.882 22.66 130.615 22.66H124.035C124.008 22.7667 123.988 22.9 123.975 23.06C123.962 23.2067 123.955 23.3733 123.955 23.56C123.955 24.2533 124.035 24.8867 124.195 25.46C124.368 26.02 124.608 26.5 124.915 26.9C125.235 27.3 125.608 27.6133 126.035 27.84C126.475 28.0533 126.962 28.16 127.495 28.16C128.055 28.16 128.575 28.04 129.055 27.8C129.535 27.5467 130.028 27.14 130.535 26.58L131.155 27.14ZM127.855 21.74C128.122 21.74 128.335 21.7333 128.495 21.72C128.655 21.7067 128.775 21.68 128.855 21.64C128.935 21.6 128.988 21.5467 129.015 21.48C129.042 21.4 129.055 21.3 129.055 21.18C129.055 20.5667 128.855 20.08 128.455 19.72C128.068 19.3467 127.535 19.16 126.855 19.16C125.415 19.16 124.522 20.02 124.175 21.74H127.855ZM133.9 29H133.46V25.56H133.96C134.48 27.44 135.426 28.38 136.8 28.38C137.333 28.38 137.753 28.2533 138.06 28C138.38 27.7333 138.54 27.3333 138.54 26.8C138.54 26.6 138.506 26.4333 138.44 26.3C138.386 26.1533 138.273 26.0067 138.1 25.86C137.94 25.7 137.706 25.52 137.4 25.32C137.106 25.12 136.713 24.8667 136.22 24.56C135.766 24.28 135.373 24.02 135.04 23.78C134.706 23.54 134.426 23.3 134.2 23.06C133.973 22.8067 133.8 22.54 133.68 22.26C133.573 21.98 133.52 21.6533 133.52 21.28C133.52 20.8267 133.593 20.4133 133.74 20.04C133.9 19.6533 134.113 19.3267 134.38 19.06C134.646 18.7933 134.96 18.5867 135.32 18.44C135.68 18.28 136.073 18.2 136.5 18.2C136.86 18.2 137.233 18.26 137.62 18.38C138.006 18.4867 138.346 18.6333 138.64 18.82L139.04 18.4H139.42V21.28H138.9C138.606 20.4667 138.286 19.8867 137.94 19.54C137.593 19.1933 137.166 19.02 136.66 19.02C136.206 19.02 135.84 19.14 135.56 19.38C135.293 19.62 135.16 19.9533 135.16 20.38C135.16 20.6067 135.193 20.8067 135.26 20.98C135.34 21.14 135.46 21.3 135.62 21.46C135.78 21.62 135.98 21.7867 136.22 21.96C136.473 22.12 136.773 22.3067 137.12 22.52C137.693 22.88 138.18 23.2 138.58 23.48C138.993 23.76 139.326 24.04 139.58 24.32C139.833 24.5867 140.02 24.8667 140.14 25.16C140.26 25.4533 140.32 25.7867 140.32 26.16C140.32 27.1067 140.013 27.8533 139.4 28.4C138.786 28.9333 137.98 29.2 136.98 29.2C135.94 29.2 135.046 28.9 134.3 28.3L133.9 29Z" fill="black"/>
<rect x="1" y="1" width="148" height="40" stroke="black" stroke-width="2"/>
</svg>
